# xmcd
#
# Track frame offsets: 
#        150
#        27217
#        45862
#        66876
#        83975
#        104926
#        124128
#        140795
#        165208
#        182962
#        205829
#        228668
#
# Disc length: 3336 seconds
#
# Revision: 0
# Processed by: cddbd v1.5.2PL0 Copyright (c) Steve Scherf et al.
# Submitted via: ExactAudioCopy v1.3
#
DISCID=a90d060c
DTITLE=Dr. Wu' And Friends - Hangin' With... Texas Blues Project, Vol.
DTITLE=4
DYEAR=2013
DGENRE=Texas Blues, Blues Roc
TTITLE0=Need a Witness
TTITLE1=Shouda, Couda, Wouda
TTITLE2=When Your Lips Start Moving
TTITLE3=Voodoo Doll (Hendrix Slight Revisit)
TTITLE4=A Handyman
TTITLE5=My Man's Specialty
TTITLE6=She's No Good For Me
TTITLE7=Life Ain't No Fair
TTITLE8=Gonna' Be Days Like That
TTITLE9=Full Time Fool
TTITLE10=Best Part Of My Life
TTITLE11=Slow Rollin' Train (Movie Version)
EXTD=
EXTT0=
EXTT1=
EXTT2=
EXTT3=
EXTT4=
EXTT5=
EXTT6=
EXTT7=
EXTT8=
EXTT9=
EXTT10=
EXTT11=
PLAYORDER=
